<?xml version="1.0" encoding="UTF-8"?><svg id="Layer_2" xmlns="http://www.w3.org/2000/svg" viewBox="0 0 233.05 192.09"><defs><style>.cls-1{fill:#231f20;}</style></defs><g id="Layer_1-2"><g><g><path class="cls-1" d="m61.96,160.8c-.48-1.44-.8-2.31-.8-6.87v-8.78c0-5.19-1.76-7.1-5.75-7.1h-3.03v22.75h-8.78v-55.87h13.25c9.1,0,13.01,4.23,13.01,12.85v4.39c0,5.75-1.84,9.5-5.75,11.33,4.39,1.84,5.83,6.07,5.83,11.89v8.62c0,2.71.08,4.71.96,6.78h-8.94Zm-9.58-47.89v17.16h3.43c3.27,0,5.27-1.43,5.27-5.91v-5.51c0-3.99-1.36-5.75-4.47-5.75h-4.23Z"/><path class="cls-1" d="m74.96,118.34c0-8.94,4.71-14.05,13.33-14.05s13.33,5.11,13.33,14.05v29.05c0,8.94-4.71,14.05-13.33,14.05s-13.33-5.11-13.33-14.05v-29.05Zm8.78,29.61c0,3.99,1.76,5.51,4.55,5.51s4.55-1.52,4.55-5.51v-30.17c0-3.99-1.76-5.51-4.55-5.51s-4.55,1.52-4.55,5.51v30.17Z"/><path class="cls-1" d="m133.54,117.78v1.99c0,5.75-1.76,9.42-5.67,11.25,4.71,1.84,6.55,6.07,6.55,11.97v4.55c0,8.62-4.55,13.25-13.33,13.25h-13.81v-55.87h13.25c9.1,0,13.01,4.23,13.01,12.85Zm-17.48-4.87v14.77h3.43c3.27,0,5.27-1.44,5.27-5.91v-3.11c0-3.99-1.36-5.75-4.47-5.75h-4.23Zm0,22.75v17.16h5.03c2.95,0,4.55-1.36,4.55-5.51v-4.87c0-5.19-1.68-6.78-5.67-6.78h-3.91Z"/><path class="cls-1" d="m139.68,104.93h8.78v47.89h14.44v7.98h-23.23v-55.87Z"/><path class="cls-1" d="m175.51,128.48h12.05v7.98h-12.05v16.36h15.16v7.98h-23.95v-55.87h23.95v7.98h-15.16v15.57Z"/></g><path class="cls-1" d="m233.05,192.09H0v-111.98h233.05v111.98Zm-221.08-11.97h209.11v-88.04H11.97v88.04Z"/><polygon class="cls-1" points="8.47 73.46 2.68 62.99 116.52 0 230.06 62.82 224.27 73.29 116.52 13.68 8.47 73.46"/></g></g></svg>